<?xml version="1.0" standalone="no"?>
<!DOCTYPE svg PUBLIC "-//W3C//DTD SVG 20010904//EN"
 "http://www.w3.org/TR/2001/REC-SVG-20010904/DTD/svg10.dtd">
<svg version="1.0" xmlns="http://www.w3.org/2000/svg"
 width="447.000000pt" height="447.000000pt" viewBox="0 0 447.000000 447.000000"
 preserveAspectRatio="xMidYMid meet">
<metadata>
Created by potrace 1.11, written by Peter Selinger 2001-2013
</metadata>
<g transform="translate(0.000000,447.000000) scale(0.100000,-0.100000)"
fill="#000000" stroke="none">
<path d="M2194 4455 c-31 -13 -64 -45 -46 -45 6 0 21 4 34 8 13 5 34 6 48 2
23 -5 22 -7 -21 -31 l-46 -26 -25 21 c-14 12 -28 30 -32 40 -3 10 -9 16 -13
12 -3 -3 -17 1 -29 9 -25 16 -54 11 -54 -10 0 -8 9 -16 19 -20 11 -3 23 -15
26 -25 3 -10 11 -17 18 -15 7 3 22 -3 35 -13 l23 -18 -91 -52 c-65 -38 -90
-58 -90 -72 0 -11 5 -20 10 -20 6 0 54 27 106 61 l95 60 45 -28 c24 -15 44
-31 44 -35 0 -5 4 -8 10 -8 5 0 32 -16 59 -35 26 -19 53 -35 60 -35 27 0 4 25
-85 91 l-96 71 42 28 43 29 36 -19 c32 -16 40 -16 61 -5 22 12 23 14 8 20 -9
4 -21 5 -25 2 -4 -3 -18 -1 -30 4 -15 5 -20 14 -16 27 4 16 0 18 -26 14 -17
-2 -31 0 -31 6 0 16 -35 20 -66 7z"/>
<path d="M2043 4159 c-7 -18 -10 -36 -6 -42 3 -5 0 -7 -8 -5 -8 3 -13 11 -11
18 2 7 0 20 -3 29 -5 13 -9 12 -19 -8 -8 -13 -11 -32 -9 -41 3 -10 -2 -20 -11
-23 -13 -5 -15 -2 -10 18 3 13 3 29 -1 35 -10 17 -38 -26 -31 -48 8 -23 7 -32
-1 -29 -4 1 -9 11 -10 21 -4 25 -9 30 -23 21 -8 -5 -10 -22 -7 -46 3 -22 1
-42 -4 -45 -5 -3 -9 11 -9 32 0 31 -2 35 -15 24 -17 -14 -16 -57 2 -72 18 -15
16 -25 -5 -30 -13 -4 -18 1 -20 19 -4 52 -32 54 -32 3 0 -29 22 -60 43 -60 6
0 2 -6 -9 -14 -17 -13 -20 -12 -37 21 -13 24 -22 32 -29 25 -15 -15 4 -65 28
-76 20 -9 20 -10 2 -28 -23 -23 -28 -23 -28 0 0 15 -37 49 -45 40 -2 -2 2 -18
9 -37 17 -50 48 -58 89 -21 18 17 26 30 18 30 -8 0 -2 10 15 25 21 19 26 27
16 33 -9 6 -6 12 13 20 26 12 36 38 10 28 -8 -3 -15 -3 -15 0 0 3 13 10 30 15
16 6 27 15 24 20 -3 5 7 14 21 19 16 6 23 14 19 22 -4 6 -3 8 4 4 6 -3 17 0
24 8 8 8 23 16 34 18 10 2 18 10 16 17 -2 9 3 9 18 1 16 -8 20 -8 20 4 0 9 7
12 20 9 14 -4 20 0 20 11 0 9 5 16 10 16 6 0 10 5 10 10 0 6 -11 10 -25 10
-18 0 -23 4 -19 15 4 8 2 15 -4 15 -16 0 -35 -29 -30 -48 3 -12 -1 -18 -12
-18 -14 0 -15 3 -4 25 13 24 11 41 -4 41 -4 0 -13 -14 -19 -31z"/>
<path d="M2219 4171 c9 -16 7 -17 -14 -13 -15 2 -25 0 -25 -7 0 -6 5 -11 10
-11 6 0 10 -6 10 -14 0 -12 14 -19 60 -31 29 -7 50 -18 50 -26 0 -5 5 -9 11
-9 6 0 22 -9 36 -20 14 -11 29 -17 34 -14 5 3 6 -2 3 -10 -3 -8 2 -17 14 -20
11 -4 19 -14 18 -23 -1 -23 52 -49 73 -36 19 12 35 59 26 81 -6 16 -8 15 -21
-2 -8 -11 -14 -28 -14 -38 0 -15 -3 -16 -25 -6 l-25 11 22 11 c26 14 32 47 13
72 -8 11 -14 14 -15 7 0 -7 -5 -13 -11 -13 -6 0 -9 6 -6 14 3 8 0 22 -8 33
-13 17 -14 16 -20 -9 -4 -15 -4 -32 0 -37 3 -6 -1 -11 -9 -11 -19 0 -18 -3 -7
37 8 26 6 35 -11 50 -21 18 -21 18 -15 -17 4 -30 2 -36 -14 -36 -10 0 -19 6
-19 13 0 7 4 13 9 13 12 0 2 37 -14 50 -18 15 -31 -6 -16 -24 6 -7 8 -16 4
-19 -9 -10 -25 -9 -19 1 2 4 -2 23 -10 42 -12 26 -17 31 -24 20 -5 -8 -5 -21
1 -31 13 -24 11 -29 -6 -23 -8 4 -12 10 -9 15 8 13 -15 49 -32 49 -11 0 -12
-4 -5 -19z m239 -156 c-9 -9 -30 14 -23 25 6 9 10 8 17 -4 6 -10 8 -19 6 -21z"/>
<path d="M2145 3958 c-19 -15 -29 -17 -39 -9 -7 6 -16 8 -20 4 -3 -4 -17 -8
-29 -10 -46 -7 -51 -12 -31 -34 17 -19 17 -22 3 -32 -42 -31 -50 -87 -16 -114
12 -10 24 -27 26 -38 3 -19 2 -19 -17 -2 -14 13 -21 15 -24 6 -6 -18 16 -79
32 -89 9 -5 9 -9 1 -14 -19 -12 -12 -21 27 -33 35 -11 66 -3 43 11 -17 11 -13
22 9 23 11 1 20 -4 20 -12 0 -21 41 -55 66 -55 12 0 37 12 55 28 24 19 31 22
26 10 -5 -14 -1 -18 14 -18 34 0 81 30 75 47 -3 8 3 26 14 40 26 33 25 63 -1
97 -20 25 -20 56 -1 56 10 0 9 68 -3 93 -4 10 -13 16 -21 13 -7 -3 -17 1 -23
7 -5 7 -22 14 -37 15 -26 2 -26 1 -10 -17 16 -18 16 -18 -9 -14 -14 3 -25 11
-25 18 0 38 -68 53 -105 23z m42 -85 c-4 -3 -2 -12 4 -19 11 -13 26 -11 67 9
27 13 42 1 46 -35 3 -22 0 -24 -55 -24 -51 -1 -58 2 -68 23 -14 31 -14 53 1
53 6 0 8 -3 5 -7z m-54 -75 c-2 -5 -13 -8 -24 -8 -15 0 -19 7 -19 32 l0 33 24
-25 c13 -14 21 -28 19 -32z m170 -51 c6 -17 -3 -67 -13 -67 -4 0 -19 18 -34
40 l-26 40 34 0 c19 0 36 -6 39 -13z m-83 -59 c0 -5 -4 -8 -10 -8 -5 0 -10 4
-10 9 0 15 -61 19 -67 4 -5 -14 -42 -19 -44 -5 0 4 -2 15 -4 25 -3 17 8 22 65
30 17 2 32 -5 47 -23 12 -14 22 -28 23 -32z"/>
<path d="M2530 3936 c-11 -34 -11 -34 -41 -19 -17 8 -33 12 -36 9 -10 -10 29
-46 41 -39 6 4 5 0 -2 -9 -10 -12 -9 -18 3 -28 17 -14 13 -119 -6 -131 -7 -4
-9 -14 -6 -22 3 -9 -1 -18 -9 -21 -8 -3 -14 -11 -14 -18 0 -8 -9 -21 -20 -30
-11 -10 -17 -26 -15 -38 3 -17 1 -19 -8 -11 -29 23 -45 -55 -17 -83 17 -17 12
-22 -19 -22 -25 0 -28 2 -20 17 12 23 12 59 -1 59 -5 0 -14 -9 -20 -20 -6 -11
-15 -18 -19 -15 -12 7 -34 -22 -38 -47 -2 -12 3 -30 10 -42 13 -20 12 -21 -13
-21 -25 0 -27 2 -19 23 13 33 11 52 -4 52 -16 0 -35 -38 -31 -62 2 -19 -4 -21
-83 -22 -22 -1 -39 3 -36 7 3 5 2 24 -2 43 -8 45 -30 39 -29 -7 1 -29 -3 -34
-22 -34 -20 0 -21 2 -9 15 16 18 10 81 -8 92 -18 12 -29 9 -22 -4 4 -7 -1 -4
-9 6 -9 11 -16 23 -16 28 0 4 -6 8 -14 8 -10 0 -13 -8 -10 -27 3 -15 7 -30 10
-35 6 -9 -3 -12 -50 -23 -35 -7 -22 -27 18 -27 20 0 24 -4 16 -13 -13 -15 9
-26 40 -20 15 3 20 -1 18 -13 -3 -15 5 -17 52 -15 l55 3 -29 -23 c-39 -32 -21
-40 33 -16 38 17 45 17 64 4 21 -15 67 -21 67 -9 0 3 -10 15 -22 26 l-23 19
38 -6 c41 -7 80 1 72 15 -3 5 9 11 26 15 21 5 29 11 25 21 -3 8 0 14 7 13 37
-5 49 1 44 22 -3 13 -1 19 6 16 16 -6 69 22 63 32 -3 4 -21 7 -40 6 -26 -2
-36 3 -39 16 -7 27 2 30 24 8 14 -14 27 -18 47 -13 30 7 65 34 44 34 -21 0
-13 19 11 22 33 5 17 23 -20 22 -26 0 -33 4 -33 18 0 15 3 16 19 6 33 -20 88
11 82 46 -1 5 6 17 15 27 24 27 8 37 -27 17 -28 -16 -29 -16 -40 3 -9 17 -8
20 8 17 22 -3 56 19 71 49 18 33 -2 36 -32 6 -14 -14 -27 -24 -29 -22 -1 2
-11 15 -22 28 -14 17 -16 22 -5 19 22 -8 48 9 65 41 12 25 12 30 0 34 -8 4
-21 -6 -32 -23 -19 -29 -19 -29 -36 -10 -15 17 -15 20 -1 20 17 0 45 57 37 77
-9 22 -21 14 -33 -21z m18 -268 c-6 -18 -28 -21 -28 -4 0 9 7 16 16 16 9 0 14
-5 12 -12z m-54 -96 c2 -4 -7 -9 -20 -10 -15 -1 -22 2 -19 8 7 12 32 13 39 2z
m-146 -119 c14 -11 12 -13 -12 -13 -22 0 -27 4 -22 16 3 9 7 23 7 32 1 13 3
12 6 -3 3 -11 12 -26 21 -32z m-325 7 c4 -16 0 -20 -20 -20 -22 0 -23 1 -9 16
9 8 13 20 10 26 -4 6 -2 8 3 5 6 -4 13 -16 16 -27z"/>
<path d="M1800 3798 c-11 -12 -20 -26 -20 -31 0 -5 -9 2 -21 17 -20 25 -49 35
-49 17 0 -4 10 -21 21 -36 17 -20 29 -26 49 -23 26 4 27 2 17 -19 -10 -22 -10
-22 -37 -3 -40 28 -58 6 -22 -27 15 -14 21 -22 15 -18 -8 4 -13 0 -13 -9 0
-25 46 -49 80 -42 22 4 30 2 30 -9 0 -10 -9 -12 -34 -8 -38 6 -62 -15 -26 -24
12 -3 19 -11 16 -19 -3 -7 2 -18 11 -26 21 -17 73 -19 80 -2 8 20 19 17 20 -5
1 -14 -4 -20 -20 -19 -43 2 -58 -2 -52 -13 12 -18 49 -27 77 -17 23 8 28 16
28 43 0 45 -9 65 -26 58 -10 -4 -14 3 -14 22 0 21 -4 26 -16 21 -11 -4 -15 -2
-11 8 3 7 -3 23 -13 34 -10 11 -16 23 -12 27 4 4 0 12 -8 18 -8 7 -15 21 -15
32 0 12 -6 19 -15 17 -11 -3 -11 1 3 16 19 20 23 42 7 42 -5 0 -18 -10 -30
-22z m13 -139 c-5 -5 -17 -3 -29 6 -14 11 -15 14 -3 9 10 -3 21 0 25 7 6 11 8
11 12 0 2 -7 0 -17 -5 -22z m67 -94 c0 -9 -6 -12 -15 -9 -8 4 -15 10 -15 15 0
5 7 9 15 9 8 0 15 -7 15 -15z"/>
<path d="M2117 3249 c-8 -5 -22 -42 -31 -82 l-16 -72 -38 -2 c-36 -1 -40 2
-82 63 -49 72 -59 75 -145 46 -55 -19 -51 -9 -54 -144 -1 -33 -5 -39 -37 -53
l-35 -15 -57 57 -56 57 -55 -31 c-63 -34 -66 -47 -35 -118 27 -61 26 -68 -19
-102 l-41 -31 -50 29 c-96 57 -89 57 -139 4 l-45 -48 28 -59 c16 -33 31 -62
34 -66 12 -11 5 -36 -15 -58 l-21 -22 -64 18 c-35 10 -68 21 -73 25 -11 6 -67
-75 -77 -112 -5 -17 5 -34 42 -74 31 -32 49 -60 50 -76 1 -34 -30 -65 -59 -58
-12 3 -44 6 -71 7 l-49 3 -18 -65 c-11 -36 -19 -68 -19 -71 0 -3 32 -27 70
-53 67 -44 70 -48 65 -78 -4 -18 -7 -34 -9 -36 -4 -3 -29 -8 -90 -17 -25 -4
-49 -12 -54 -19 -12 -15 -9 -153 3 -164 6 -5 40 -17 78 -27 37 -10 67 -21 68
-24 0 -3 2 -15 4 -26 5 -27 0 -34 -68 -80 -32 -22 -60 -42 -63 -46 -2 -4 6
-37 19 -75 l22 -69 82 0 c83 0 83 0 93 -29 10 -30 0 -48 -56 -101 -6 -5 -18
-21 -27 -33 -14 -23 -13 -27 25 -88 22 -35 43 -66 47 -68 3 -2 39 6 78 19 62
19 74 21 84 9 13 -16 10 -25 -41 -107 l-30 -48 59 -59 c33 -33 62 -60 66 -60
3 0 34 18 67 40 34 22 64 40 67 40 4 0 14 -7 25 -15 15 -11 17 -22 13 -52 -4
-21 -9 -61 -12 -88 l-6 -50 60 -27 c64 -28 81 -28 116 5 11 10 35 28 53 39 28
17 37 18 62 8 29 -12 29 -14 32 -94 l3 -81 70 -18 c39 -9 75 -15 81 -13 5 2
21 26 35 52 13 27 27 51 32 52 4 2 7 10 7 18 0 15 46 19 68 6 7 -5 15 -26 17
-48 10 -78 17 -104 29 -105 6 -1 44 -2 84 -3 73 -1 79 2 87 44 1 3 9 30 18 61
15 51 20 57 47 61 26 4 33 0 52 -31 12 -20 25 -38 28 -41 3 -3 14 -18 24 -33
17 -29 20 -29 71 -13 6 2 25 7 43 11 17 4 32 13 33 19 1 11 -2 72 -6 116 -5
65 43 65 114 1 l53 -50 64 32 c61 30 64 33 60 62 -18 114 -17 141 1 157 17 15
22 14 83 -22 36 -22 71 -39 77 -40 7 0 25 14 40 31 16 18 40 45 55 61 l28 30
-40 72 -40 73 23 19 c22 21 31 22 57 11 8 -4 35 -14 60 -22 44 -16 45 -16 63
8 10 13 31 46 47 74 l28 50 -54 57 c-30 32 -54 63 -54 70 1 36 42 47 125 32
41 -7 50 1 69 66 18 64 20 88 6 88 -18 0 -125 82 -122 93 2 6 4 23 4 38 1 28
18 36 108 54 19 4 40 11 46 16 10 8 13 144 3 154 -7 6 -109 27 -131 27 -10 -1
-18 0 -19 1 0 1 -2 21 -5 44 l-6 42 71 36 c75 37 75 38 57 100 -2 6 -6 24 -11
40 -13 49 -21 53 -95 51 -78 -2 -92 3 -97 34 -3 21 16 44 79 93 15 12 28 29
28 37 0 9 -16 42 -36 74 -35 55 -38 58 -68 51 -17 -3 -44 -9 -61 -12 -16 -3
-38 -9 -47 -14 -12 -7 -22 -2 -37 17 -12 15 -21 31 -21 36 0 6 16 39 35 74 19
35 35 67 35 72 0 11 -91 102 -102 102 -5 0 -36 -18 -70 -39 l-62 -39 -33 25
c-38 29 -36 25 -22 77 6 21 12 46 14 55 2 9 6 23 10 32 7 19 -38 57 -106 86
l-47 21 -57 -58 c-52 -52 -60 -57 -81 -48 -21 10 -23 18 -26 92 l-3 80 -62 21
c-37 13 -67 18 -76 13 -8 -4 -29 -37 -45 -73 -30 -64 -31 -65 -64 -58 -41 7
-38 5 -44 39 -3 16 -7 37 -10 46 -3 9 -7 27 -9 39 -3 12 -8 26 -13 31 -12 12
-126 17 -145 7z m108 -62 c4 -12 12 -51 19 -92 6 -32 16 -52 29 -53 7 -1 39
-4 73 -8 l60 -6 30 66 c29 66 29 66 64 62 19 -3 37 -5 39 -6 2 0 1 -36 -2 -80
-6 -77 -5 -81 16 -89 12 -5 39 -16 59 -25 l37 -16 56 55 c30 30 60 55 66 55
10 0 79 -38 79 -43 0 -1 -7 -24 -15 -52 -29 -95 -29 -100 13 -131 20 -16 46
-36 56 -46 11 -10 22 -18 25 -18 3 1 35 18 71 40 l65 40 24 -24 24 -24 -32
-54 c-42 -75 -44 -95 -9 -145 15 -23 33 -45 38 -48 5 -3 43 1 84 10 41 8 77
15 80 15 3 0 13 -14 22 -32 l16 -32 -60 -53 -60 -53 21 -55 c24 -61 9 -55 147
-59 44 -1 45 -2 51 -41 4 -22 6 -40 5 -41 0 0 -32 -15 -69 -32 l-68 -31 7 -53
c9 -78 13 -100 18 -105 2 -2 21 -6 42 -9 22 -3 55 -9 75 -14 33 -9 36 -13 34
-41 -3 -29 -10 -44 -23 -44 -21 -1 -132 -30 -133 -35 0 -3 -2 -14 -4 -25 -2
-11 -6 -44 -9 -73 -6 -49 -5 -53 19 -64 14 -6 25 -15 25 -20 0 -4 6 -8 13 -8
6 -1 24 -11 40 -23 23 -20 26 -28 21 -56 l-7 -32 -78 7 -78 6 -16 -38 c-29
-70 -27 -84 26 -138 27 -28 49 -53 49 -57 0 -5 -9 -24 -21 -43 -16 -28 -24
-34 -37 -27 -10 5 -19 9 -22 9 -9 -1 -55 13 -78 25 -21 10 -27 7 -66 -38 -24
-27 -43 -54 -42 -60 1 -6 16 -36 34 -68 17 -31 32 -60 32 -65 0 -5 -13 -23
-29 -41 l-30 -33 -67 40 c-73 44 -75 44 -130 -5 -27 -24 -31 -34 -29 -68 2
-22 5 -40 5 -40 1 0 4 -19 6 -43 3 -38 1 -44 -22 -52 -36 -14 -35 -15 -93 35
-57 49 -75 53 -109 29 -12 -8 -22 -12 -22 -9 0 3 -10 1 -21 -6 -20 -10 -21
-17 -15 -90 3 -43 2 -79 -2 -79 -4 0 -16 -3 -28 -6 -17 -4 -29 6 -65 61 l-44
67 -59 -6 c-33 -3 -63 -12 -68 -19 -4 -6 -15 -42 -25 -79 l-17 -68 -47 0 c-42
0 -47 2 -47 23 0 12 -3 38 -6 57 -15 82 -14 80 -55 80 -21 0 -52 3 -69 6 -28
6 -31 3 -68 -64 -37 -68 -39 -70 -73 -66 -19 3 -37 6 -39 9 -2 2 -6 36 -9 77
-2 40 -8 77 -13 83 -5 6 -32 19 -60 29 l-50 18 -53 -39 c-28 -22 -57 -42 -64
-46 -15 -10 -86 19 -79 32 3 5 8 24 10 42 3 19 8 50 11 70 5 34 3 39 -38 73
-24 20 -49 36 -56 36 -7 0 -38 -18 -71 -40 l-58 -40 -35 37 c-34 34 -34 37
-18 54 21 23 61 97 61 112 0 7 -13 28 -29 46 l-29 35 -48 -13 c-103 -27 -108
-26 -129 12 l-18 35 46 55 c46 54 55 81 38 115 -5 9 -14 29 -20 45 -10 26 -13
27 -90 27 -79 0 -79 0 -90 30 -12 35 0 49 82 102 32 21 46 36 43 47 -3 9 -8
37 -12 64 -3 26 -10 48 -15 48 -13 2 -22 4 -44 11 -11 4 -39 12 -62 18 -41 10
-43 12 -43 50 0 46 3 48 72 60 29 4 60 10 68 12 15 3 28 53 29 114 1 25 -7 36
-44 62 -25 18 -49 32 -53 32 -15 0 -30 37 -25 63 5 27 6 27 85 25 l79 -3 25
58 c14 32 22 66 19 75 -3 9 -26 39 -50 66 -25 28 -45 53 -45 57 0 4 8 17 18
29 l18 22 69 -21 70 -21 20 23 c11 12 31 37 44 55 l23 33 -32 74 c-27 61 -30
78 -20 90 18 22 37 19 92 -15 26 -16 55 -30 63 -30 14 0 103 58 133 87 16 16
16 20 -14 92 -24 60 -24 64 -7 77 10 7 20 14 23 14 3 0 30 -24 61 -54 61 -59
59 -59 157 -16 l32 15 0 81 c0 76 2 82 23 88 49 13 62 6 106 -57 43 -62 44
-62 90 -61 25 1 48 3 51 5 3 1 14 2 24 3 20 1 30 24 41 95 3 19 10 40 15 46
13 16 70 17 75 2z"/>
<path d="M2149 2928 c-1 -29 -2 -71 -3 -93 l-1 -40 70 0 c57 0 70 3 73 17 3
13 -5 16 -43 16 -47 -1 -68 13 -58 38 2 7 17 12 31 12 51 -1 62 2 62 17 0 11
-12 15 -45 15 -36 0 -45 3 -45 18 0 14 9 17 47 17 38 0 48 4 51 18 3 15 -5 17
-67 17 l-71 0 -1 -52z"/>
<path d="M1988 2965 c-4 -4 -52 -12 -84 -14 -7 -1 -14 -7 -17 -14 -5 -13 27
-164 37 -174 13 -13 27 13 24 45 -3 34 -1 36 35 45 50 12 42 33 -12 30 -35 -2
-41 0 -41 17 0 12 7 21 18 22 32 2 37 4 50 11 13 9 17 37 4 37 -5 0 -11 -2
-14 -5z"/>
<path d="M2355 2923 c-4 -21 -10 -42 -13 -48 -3 -5 -7 -16 -8 -25 -1 -8 -5
-27 -9 -42 -4 -16 -3 -28 1 -28 13 0 39 18 40 27 5 32 18 73 24 73 3 0 13 -28
21 -62 12 -52 18 -64 36 -66 18 -3 24 4 33 40 6 24 15 56 20 72 14 41 12 66
-3 66 -15 0 -35 -34 -40 -67 -5 -39 -14 -35 -28 14 -7 26 -14 50 -14 53 -1 15
-18 30 -34 30 -14 0 -21 -10 -26 -37z"/>
<path d="M1722 2885 c-29 -13 -40 -29 -48 -73 -9 -45 44 -112 88 -112 80 0
120 67 84 139 -28 53 -69 69 -124 46z m71 -42 c39 -44 27 -103 -21 -103 -43 0
-72 70 -41 101 24 24 41 24 62 2z"/>
<path d="M2588 2864 c-33 -17 -58 -62 -58 -103 0 -35 53 -85 82 -78 10 3 18 2
18 -3 0 -4 7 -10 15 -14 10 -4 20 6 30 31 19 46 19 48 -8 66 -31 20 -62 4 -34
-17 25 -20 21 -26 -17 -26 -38 0 -49 17 -41 59 7 38 33 60 63 55 32 -6 33 -7
36 -31 3 -21 46 -32 46 -11 0 22 -29 57 -60 73 -35 18 -38 18 -72 -1z"/>
<path d="M2747 2710 c-55 -70 -63 -85 -46 -95 17 -11 114 103 114 133 0 32
-22 20 -68 -38z"/>
<path d="M1478 2720 c-18 -16 -36 -30 -40 -30 -28 0 9 -65 78 -138 l21 -22 45
34 c25 19 48 42 51 50 10 25 -24 19 -57 -9 -22 -19 -32 -22 -43 -14 -20 17
-16 34 11 49 25 13 42 50 24 50 -6 0 -26 -11 -44 -25 -26 -20 -34 -22 -43 -11
-9 11 -4 20 22 43 18 16 31 35 29 41 -6 19 -18 15 -54 -18z"/>
<path d="M1990 2695 c-76 -21 -180 -64 -213 -86 -67 -46 -87 -71 -87 -109 0
-31 12 -50 76 -126 97 -114 122 -137 140 -130 7 3 14 9 14 14 0 13 -45 68
-135 166 -34 37 -52 68 -48 84 9 36 127 99 253 135 121 35 120 36 120 -92 0
-156 8 -211 31 -211 18 0 19 11 19 160 0 157 -1 161 -25 185 -28 28 -71 31
-145 10z"/>
<path d="M2239 2695 c-40 -22 -47 -57 -47 -213 l1 -143 26 3 26 3 1 141 c1 78
4 149 8 159 8 21 46 17 146 -16 174 -57 254 -122 207 -171 -6 -7 -44 -49 -82
-93 -39 -44 -73 -81 -77 -83 -5 -2 -8 -12 -8 -23 0 -26 35 -25 58 2 9 11 25
30 35 42 10 12 35 40 56 62 90 97 102 140 50 193 -45 46 -175 112 -250 127 -9
2 -34 8 -55 14 -50 14 -63 13 -95 -4z"/>
<path d="M2818 2644 c-61 -59 -62 -62 -50 -81 5 -8 19 -1 45 24 21 19 41 33
43 30 3 -3 -1 -29 -10 -58 -14 -51 -10 -79 14 -79 14 0 130 121 125 130 -10
16 -22 12 -58 -20 -19 -16 -37 -27 -40 -24 -3 3 1 28 9 56 29 94 3 101 -78 22z"/>
<path d="M1321 2550 c-43 -43 -42 -81 3 -126 26 -26 43 -34 69 -34 38 0 87 37
87 66 0 9 7 22 16 28 14 10 10 16 -25 40 l-41 29 -20 -24 c-10 -13 -19 -30
-20 -36 0 -19 27 -16 39 5 6 9 11 13 11 7 1 -5 3 -19 5 -30 9 -45 -53 -62 -93
-25 -38 35 -26 83 23 92 27 4 26 32 -1 36 -13 2 -33 -9 -53 -28z"/>
<path d="M3005 2519 c-5 -5 -36 -26 -67 -46 l-57 -36 30 -43 c16 -23 29 -47
29 -53 0 -6 9 -11 20 -11 26 0 25 13 -5 58 l-25 37 21 10 c21 9 33 1 59 -45 7
-12 12 -12 21 -3 9 9 7 19 -10 46 -11 19 -18 37 -14 40 14 15 32 5 52 -28 11
-19 25 -35 31 -35 18 0 11 32 -17 76 -27 43 -48 53 -68 33z"/>
<path d="M1933 2492 c-9 -6 -7 -18 7 -47 11 -22 28 -61 39 -86 11 -27 25 -46
35 -46 9 0 16 3 16 6 0 11 -75 181 -80 181 -3 0 -10 -4 -17 -8z"/>
<path d="M2362 2423 c-36 -80 -42 -108 -23 -108 8 0 28 34 48 78 37 88 39 97
20 97 -8 0 -27 -30 -45 -67z"/>
<path d="M2045 2440 c-10 -17 25 -110 42 -110 11 0 13 7 8 33 -14 71 -34 102
-50 77z"/>
<path d="M1572 2428 c-54 -27 -171 -260 -179 -358 -8 -90 26 -110 217 -125
145 -12 135 -13 135 15 0 21 -5 25 -32 26 -18 1 -34 2 -35 4 -3 1 -111 10
-148 11 -8 1 -32 5 -52 10 -35 9 -38 13 -38 43 0 94 123 336 170 336 6 0 23
-13 38 -28 142 -149 177 -182 190 -180 34 7 18 33 -85 137 -110 113 -139 130
-181 109z"/>
<path d="M2286 2428 c-3 -7 -9 -28 -15 -47 -14 -44 -14 -48 4 -55 13 -5 27 28
40 96 4 20 -23 25 -29 6z"/>
<path d="M2602 2304 c-102 -103 -111 -116 -100 -134 12 -19 19 -13 121 88 143
142 139 143 228 -36 38 -76 52 -118 56 -161 6 -67 5 -68 -88 -76 -209 -17
-207 -16 -212 -36 -5 -17 15 -44 25 -34 4 5 65 11 188 19 138 9 167 63 115
216 -27 78 -102 215 -135 245 -11 10 -35 19 -53 21 -29 2 -43 -9 -145 -112z"/>
<path d="M1211 2363 c-40 -81 -41 -79 45 -118 42 -19 79 -35 83 -35 11 0 62
110 56 121 -12 18 -25 8 -48 -36 -20 -41 -24 -44 -41 -32 -17 12 -17 15 -2 51
20 47 19 46 1 46 -9 0 -23 -16 -32 -35 -9 -19 -21 -35 -25 -35 -17 0 -21 34
-6 59 15 27 14 51 -3 51 -5 0 -17 -17 -28 -37z"/>
<path d="M1905 2370 c10 -33 46 -90 55 -90 20 0 19 22 -3 62 -26 47 -64 67
-52 28z"/>
<path d="M2424 2378 c-17 -27 -44 -83 -44 -91 0 -21 33 2 55 39 21 35 23 44
11 53 -11 9 -16 9 -22 -1z"/>
<path d="M3100 2343 c-70 -30 -85 -36 -98 -39 -31 -6 -32 -33 -4 -96 32 -73
63 -58 34 15 -13 33 -13 40 -1 48 23 14 28 11 45 -31 25 -62 51 -51 29 12 -10
30 -10 40 0 48 9 8 17 4 29 -14 9 -14 16 -32 16 -41 0 -9 9 -15 21 -15 16 0
19 4 14 23 -4 12 -11 26 -16 32 -5 5 -9 16 -9 25 0 9 -6 23 -12 32 -12 14 -17
14 -48 1z"/>
<path d="M1717 2203 c-13 -13 -7 -20 42 -46 43 -24 61 -26 61 -7 0 20 -90 67
-103 53z"/>
<path d="M1305 2181 c-7 -12 -16 -48 -17 -68 -1 -7 -2 -13 -2 -13 -1 0 -33 9
-73 19 -40 10 -74 16 -77 13 -11 -10 -6 -39 7 -40 15 -1 52 -10 52 -12 0 -1 9
-3 20 -5 11 -2 37 -7 57 -10 36 -7 37 -7 47 31 16 59 17 86 4 91 -6 2 -14 -1
-18 -6z"/>
<path d="M2578 2170 c-41 -22 -52 -35 -43 -50 8 -13 105 40 105 57 0 18 -18
16 -62 -7z"/>
<path d="M1606 2171 c-3 -5 0 -14 8 -20 18 -15 106 -61 126 -66 8 -2 23 -6 33
-10 12 -5 17 -2 17 9 0 11 -29 30 -86 56 -97 45 -91 43 -98 31z"/>
<path d="M2170 2153 c0 -39 -17 -95 -50 -167 -37 -80 -34 -122 14 -180 l36
-44 -59 -10 c-114 -20 -245 -100 -234 -142 5 -19 1 -24 -127 -163 -73 -79 -79
-89 -76 -121 4 -34 35 -65 101 -101 56 -31 169 -76 200 -81 11 -1 20 -3 20 -4
0 -1 24 -3 53 -5 47 -2 57 1 81 26 27 27 28 30 30 159 1 72 6 141 11 153 11
28 12 20 16 -78 1 -44 4 -107 7 -141 5 -60 28 -113 51 -115 89 -9 142 -1 211
33 22 11 47 21 55 23 35 7 142 80 154 104 23 48 14 66 -94 181 -58 62 -105
120 -105 130 0 23 -49 61 -135 102 -53 26 -44 23 -98 33 -42 8 -43 8 -40 44 2
20 14 58 27 85 25 54 24 103 -3 169 -14 33 -15 37 -1 37 8 0 15 -7 15 -15 0
-8 5 -15 10 -15 6 0 10 -9 10 -19 0 -11 5 -23 11 -27 16 -9 4 -144 -13 -156
-10 -8 -10 -9 1 -6 24 7 48 65 46 111 -1 32 -15 68 -54 135 -29 51 -57 92 -62
92 -5 0 -9 -12 -9 -27z m21 -163 c1 -11 2 -28 2 -39 2 -20 -34 -101 -45 -101
-11 0 -2 103 12 133 15 32 30 35 31 7z m54 -269 c6 -3 15 -6 21 -7 21 -3 89
-38 134 -68 l44 -30 -28 -7 c-66 -18 -135 7 -199 73 l-38 39 -20 -25 c-28 -35
-76 -68 -108 -73 -34 -5 -151 -9 -151 -5 0 17 121 90 168 102 39 9 160 10 177
1z m-334 -220 c-26 -36 -27 -51 -3 -51 10 1 25 18 38 43 11 23 25 41 30 39 11
-3 13 -33 3 -47 -4 -5 -18 -38 -32 -72 -20 -50 -23 -64 -12 -73 13 -11 16 -6
66 112 13 32 29 56 34 54 11 -3 10 -43 -1 -88 -5 -21 -3 -28 9 -28 14 0 35 44
41 85 3 22 12 27 23 13 16 -20 4 -276 -14 -293 -13 -13 -56 -13 -119 -1 -56
11 -213 87 -239 116 -22 25 -16 34 91 149 44 46 83 91 89 100 8 14 10 13 13
-6 2 -13 -6 -36 -17 -52z m640 -68 c43 -45 79 -88 79 -96 0 -8 -8 -21 -17 -29
-22 -19 -153 -85 -208 -105 -51 -18 -142 -27 -149 -14 -9 13 -17 100 -20 208
-3 112 14 133 39 47 10 -36 21 -54 31 -54 13 0 15 6 9 28 -4 15 -8 32 -9 39
-1 7 -5 16 -9 19 -7 8 10 34 22 34 4 0 23 -38 42 -85 18 -47 37 -85 42 -85 20
0 15 33 -16 108 -27 62 -31 82 -21 86 8 3 24 -14 41 -44 18 -31 33 -46 40 -42
9 6 7 19 -8 51 -27 61 -24 78 7 44 14 -15 61 -65 105 -110z"/>
<path d="M2637 2119 c-43 -22 -75 -44 -72 -49 3 -6 10 -10 15 -10 23 0 170 76
170 87 0 22 -32 14 -113 -28z"/>
<path d="M3157 2153 c-3 -2 -16 -6 -29 -7 -81 -11 -98 -18 -98 -43 0 -14 4
-22 11 -18 14 9 59 14 59 6 0 -3 3 -16 6 -28 5 -18 0 -25 -30 -37 -25 -11 -34
-19 -30 -30 7 -17 37 -16 72 3 10 5 28 8 39 5 12 -3 31 0 43 6 20 11 22 18 18
71 -2 32 -7 61 -10 64 -8 8 -45 14 -51 8z m23 -78 c0 -26 -3 -33 -15 -29 -8 4
-16 10 -16 15 -1 5 -2 15 -3 22 -2 12 12 27 27 27 4 0 7 -16 7 -35z"/>
<path d="M1650 2062 c0 -13 15 -23 53 -35 65 -21 64 -21 64 -2 0 9 -22 23 -54
35 -65 24 -63 24 -63 2z"/>
<path d="M2623 2039 c-36 -11 -45 -20 -34 -37 5 -9 19 -7 56 7 81 31 63 55
-22 30z"/>
<path d="M1275 2029 c-5 -7 -11 -29 -15 -49 l-5 -35 -60 -1 c-84 -2 -85 -2
-85 -18 0 -15 50 -26 126 -26 40 0 54 4 59 18 21 47 2 148 -20 111z"/>
<path d="M3053 1922 c-9 -21 3 -25 92 -30 72 -4 86 -2 91 12 10 26 -1 30 -92
31 -63 0 -88 -3 -91 -13z"/>
<path d="M1633 1890 c-2 -3 -40 -6 -84 -6 -118 -2 -118 -2 -144 -29 -32 -31
-32 -62 1 -161 70 -217 162 -319 241 -269 56 36 215 195 210 210 -9 26 -39 9
-127 -75 -52 -49 -105 -93 -118 -96 -44 -12 -109 84 -157 232 -14 42 -25 87
-25 100 0 39 -6 38 238 42 80 2 82 2 82 27 0 19 -5 25 -22 26 -69 4 -90 4 -95
-1z"/>
<path d="M2600 1865 c0 -19 6 -25 23 -27 12 0 47 -3 77 -5 30 -2 82 -5 115 -7
33 -2 67 -4 76 -5 27 -2 28 -36 2 -113 -33 -97 -60 -154 -100 -204 -54 -69
-63 -67 -180 48 -97 96 -104 101 -120 85 -16 -16 -11 -23 91 -122 59 -58 113
-106 119 -106 7 -1 22 -3 34 -4 54 -6 135 105 194 266 54 149 31 198 -97 205
-38 2 -106 6 -151 9 l-83 5 0 -25z"/>
<path d="M1148 1820 c-26 -27 -29 -35 -24 -68 15 -80 105 -109 167 -51 33 30
37 64 14 108 -17 34 -33 41 -87 41 -31 0 -46 -7 -70 -30z m129 -37 c12 -17 11
-23 -4 -41 -25 -29 -76 -38 -97 -17 -29 29 -18 67 24 83 30 11 59 2 77 -25z"/>
<path d="M3040 1842 c0 -16 27 -28 79 -37 35 -6 41 -9 27 -17 -9 -5 -24 -11
-34 -13 -39 -8 -71 -25 -82 -45 -8 -15 -8 -21 2 -25 27 -10 163 -33 171 -28 4
2 7 13 7 24 0 15 -6 20 -22 19 -13 -1 -25 -1 -28 0 -3 1 -16 4 -29 6 -38 7
-36 10 30 34 85 32 93 66 18 75 -19 2 -58 7 -86 11 -36 5 -53 3 -53 -4z"/>
<path d="M1690 1812 c-55 -18 -54 -17 -43 -35 7 -13 14 -13 58 1 28 10 51 24
53 33 4 19 -11 20 -68 1z"/>
<path d="M2585 1819 c-7 -11 15 -43 23 -34 3 3 10 1 16 -4 6 -5 26 -12 44 -16
25 -5 32 -3 32 9 0 9 -2 16 -5 16 -2 0 -27 9 -54 20 -32 12 -52 16 -56 9z"/>
<path d="M1754 1761 c-5 -4 -44 -20 -86 -35 -47 -17 -78 -34 -78 -42 0 -8 5
-14 12 -14 28 0 178 64 178 76 0 17 -14 25 -26 15z"/>
<path d="M2564 1759 c-7 -12 15 -41 27 -33 5 3 9 0 9 -7 0 -7 3 -10 6 -7 3 3
32 -5 64 -18 68 -28 80 -29 80 -11 0 14 -39 37 -71 43 -9 2 -37 12 -62 23 -29
13 -49 16 -53 10z"/>
<path d="M1763 1691 c-50 -28 -65 -43 -54 -54 14 -14 111 41 104 59 -6 17 -10
17 -50 -5z"/>
<path d="M2530 1700 c-16 -10 -3 -25 53 -58 34 -20 38 -20 44 -5 4 9 1 19 -5
21 -7 2 -18 9 -25 15 -26 24 -54 35 -67 27z"/>
<path d="M1284 1636 c-7 -18 4 -39 16 -31 12 7 40 -23 40 -44 0 -37 -40 -58
-100 -52 -17 2 -29 44 -18 65 14 25 -5 44 -27 26 -26 -22 -19 -78 15 -111 26
-26 35 -29 67 -24 74 11 114 60 94 117 -18 50 -75 86 -87 54z"/>
<path d="M3018 1635 c-29 -16 -43 -47 -39 -82 1 -13 -2 -23 -8 -23 -6 0 -11
-7 -11 -15 0 -8 3 -14 8 -13 4 1 20 -4 35 -10 16 -7 33 -12 38 -12 9 0 29 41
29 61 0 16 -28 10 -34 -8 -6 -15 -8 -15 -16 -3 -23 37 3 82 43 75 35 -7 65
-26 70 -45 5 -21 -16 -64 -27 -53 -8 8 -26 -15 -26 -34 0 -22 31 -14 61 16 50
50 33 118 -37 147 -41 17 -52 17 -86 -1z"/>
<path d="M1352 1336 c-14 -32 8 -52 54 -47 16 1 26 30 19 52 -10 29 -59 25
-73 -5z"/>
<path d="M2915 1341 c-14 -44 30 -73 64 -43 15 13 17 22 11 40 -12 29 -66 31
-75 3z"/>
<path d="M1553 1212 c-21 -26 -41 -49 -44 -52 -3 -3 -11 -15 -18 -28 -17 -32
14 -44 36 -13 l15 22 34 -21 c44 -25 55 -25 82 0 30 28 28 64 -5 95 -53 50
-58 49 -100 -3z m82 -33 c12 -37 -16 -48 -49 -20 -15 13 -15 15 0 32 18 21 41
15 49 -12z"/>
<path d="M2701 1219 c-23 -16 -41 -34 -41 -40 0 -14 99 -139 110 -139 20 0 90
78 90 99 0 30 -28 77 -54 90 -41 22 -64 20 -105 -10z m93 -34 c23 -25 26 -45
12 -77 -12 -27 -30 -22 -65 19 -35 41 -38 58 -13 72 27 16 41 13 66 -14z"/>
<path d="M1678 1083 c-60 -56 -65 -64 -49 -73 14 -7 22 -6 31 5 18 22 70 -7
70 -39 0 -13 7 -27 16 -30 22 -9 24 -6 29 45 2 24 6 62 10 83 13 92 -16 94
-107 9z m67 -22 c-6 -27 -9 -30 -27 -20 -20 11 -20 11 3 35 27 29 33 25 24
-15z"/>
<path d="M2562 1131 c-13 -8 -12 -55 2 -151 2 -14 4 -31 5 -38 2 -21 41 6 41
28 0 11 12 26 28 34 25 13 31 13 43 1 10 -10 19 -11 29 -5 12 8 3 22 -50 75
-66 66 -75 71 -98 56z m58 -66 c13 -16 6 -35 -14 -35 -8 0 -13 11 -13 25 0 28
9 32 27 10z"/>
<path d="M1851 1072 c-13 -34 -43 -154 -39 -156 8 -5 100 -26 113 -26 34 0
-10 42 -47 45 -16 1 -18 15 -8 56 21 84 21 96 6 102 -9 4 -18 -4 -25 -21z"/>
<path d="M2430 1058 c-11 -18 -20 -36 -20 -40 0 -19 -18 -5 -24 18 -5 17 -12
24 -24 22 -9 -2 -16 -9 -15 -15 1 -6 4 -21 7 -34 18 -101 70 -177 66 -96 -4
68 1 71 45 29 20 -19 37 -27 52 -24 32 6 29 12 -22 50 -48 35 -53 47 -30 78
19 25 19 44 0 44 -8 0 -24 -15 -35 -32z"/>
<path d="M2008 971 c-21 -44 -38 -84 -38 -89 0 -15 31 -8 41 10 12 21 70 11
76 -13 3 -12 14 -19 28 -19 23 0 23 0 9 58 -31 127 -34 132 -57 132 -18 -1
-30 -17 -59 -79z m68 -4 c5 -28 -12 -45 -27 -30 -6 6 -6 20 2 37 14 30 18 29
25 -7z"/>
<path d="M2250 1015 c-31 -43 -40 -44 -40 -5 0 23 -4 30 -20 30 -19 0 -20 -5
-16 -87 4 -80 6 -88 25 -91 18 -3 21 2 21 32 0 19 4 37 8 40 5 3 25 -12 46
-34 22 -23 43 -37 51 -34 17 7 10 24 -35 73 -16 18 -30 35 -30 36 0 1 11 15
25 31 30 34 31 44 8 44 -10 0 -29 -16 -43 -35z"/>
<path d="M1270 813 c-28 -19 -197 -159 -218 -180 -7 -7 -17 -13 -22 -13 -22 0
-17 -35 10 -68 16 -20 30 -42 30 -49 0 -7 5 -13 10 -13 6 0 10 -6 10 -12 0 -9
-19 -13 -62 -13 -70 -1 -199 -11 -238 -20 -14 -3 -36 -7 -50 -10 -34 -7 -55
-11 -125 -27 -57 -14 -144 -15 -210 -4 -115 19 -140 24 -140 26 0 1 -8 3 -17
5 -35 6 -17 -15 81 -97 55 -46 100 -87 100 -93 0 -5 -68 -44 -152 -86 -83 -42
-153 -81 -154 -86 -4 -10 27 -19 117 -39 130 -28 316 -23 515 12 49 9 99 18
110 19 11 2 20 4 20 5 0 5 90 8 265 10 236 3 294 14 424 79 l98 50 67 -21 c36
-11 71 -21 76 -22 6 -1 19 -5 30 -9 25 -8 56 -14 170 -32 104 -16 440 -13 485
5 3 1 8 2 11 2 4 -1 22 3 40 9 19 6 43 11 55 13 11 2 61 15 110 30 l89 28 70
-41 c132 -78 190 -88 515 -96 206 -4 231 -6 305 -24 130 -31 360 -45 470 -28
115 18 195 37 195 46 0 5 -69 43 -152 86 -84 42 -157 81 -161 85 -5 4 19 31
54 60 34 29 69 58 76 66 8 7 19 17 26 21 7 5 20 18 31 30 18 22 18 22 -10 17
-16 -2 -36 -7 -44 -10 -8 -3 -58 -11 -111 -19 -113 -16 -139 -14 -264 15 -116
27 -249 43 -358 44 l-68 1 6 35 c4 19 15 49 24 66 18 30 18 31 -1 43 -11 7
-77 59 -147 115 l-128 103 -109 -74 c-148 -100 -371 -208 -474 -228 -8 -2 -33
-8 -55 -13 -22 -6 -62 -14 -90 -18 -67 -10 -309 -10 -365 -1 -25 5 -56 10 -70
13 -14 2 -50 11 -80 19 -30 9 -62 17 -70 20 -8 2 -27 8 -42 14 -59 23 -73 29
-80 30 -45 10 -379 206 -398 233 -4 4 -17 0 -30 -9z m42 -62 c5 -14 162 -109
269 -163 54 -26 150 -66 216 -88 108 -36 143 -45 222 -55 14 -2 26 -4 26 -5 0
-9 262 -13 317 -6 232 32 450 116 657 254 47 31 93 60 101 63 12 5 64 -24 90
-51 3 -3 28 -23 55 -45 57 -45 75 -62 75 -68 0 -5 -65 -54 -140 -106 -57 -39
-221 -131 -288 -162 -85 -39 -182 -78 -182 -74 0 2 -32 -7 -71 -20 -38 -13
-87 -27 -107 -30 -21 -3 -49 -8 -62 -11 -109 -24 -389 -24 -510 0 -8 2 -33 6
-55 10 -207 39 -463 148 -685 292 -95 61 -166 114 -155 114 6 0 28 16 50 36
22 20 56 48 75 62 19 15 42 35 52 45 19 18 44 23 50 8z m-148 -379 c21 -6 51
-36 103 -103 40 -52 72 -100 73 -106 0 -16 -75 -17 -170 -3 -41 6 -102 5 -170
-1 -138 -14 -215 -24 -215 -29 0 -1 -11 -3 -25 -5 -14 -1 -52 -7 -85 -14 -78
-14 -250 -22 -295 -12 l-35 7 112 59 c62 33 113 65 113 70 0 6 -9 17 -21 25
-11 8 -33 26 -49 40 l-28 25 97 1 c102 1 121 4 246 34 44 10 89 20 100 23 33
6 218 -2 249 -11z m2453 0 c16 -9 50 -17 163 -38 19 -4 77 -7 128 -8 l93 -1
-52 -46 -53 -46 70 -38 c38 -21 91 -51 117 -65 l48 -27 -43 -6 c-54 -8 -227 0
-283 13 -23 5 -61 12 -84 15 -24 3 -46 7 -50 9 -7 5 -68 12 -212 26 -61 6
-118 6 -155 0 -79 -13 -161 -13 -170 1 -3 6 -3 14 2 18 8 5 44 51 75 96 4 6
25 29 46 53 34 38 45 45 93 51 71 10 244 5 267 -7z"/>
<path d="M2922 594 c4 -21 22 -23 26 -1 2 10 -3 17 -13 17 -10 0 -15 -6 -13
-16z"/>
<path d="M1420 560 c0 -5 14 -16 30 -25 36 -18 38 -31 8 -38 -21 -6 -21 -7 -5
-25 16 -17 16 -21 2 -32 -22 -18 -43 3 -40 40 1 17 -1 33 -6 36 -5 3 -10 -1
-10 -8 -1 -7 -3 -28 -5 -47 -4 -38 15 -60 53 -61 17 0 24 7 29 28 11 51 24 74
41 70 24 -4 28 -34 9 -54 -13 -12 -14 -20 -4 -37 14 -29 27 -37 58 -37 28 0
60 -30 60 -56 0 -9 6 -14 13 -11 6 2 11 11 9 21 -2 9 2 16 8 16 13 0 13 27 0
35 -6 4 -17 2 -24 -4 -14 -12 -26 -5 -26 16 0 16 32 17 47 2 8 -8 14 -6 22 9
10 18 15 19 46 9 37 -11 43 -32 9 -32 -23 0 -25 -18 -7 -64 16 -42 19 -45 32
-36 7 4 5 14 -5 31 -15 22 -15 24 0 24 10 0 23 15 31 33 8 17 14 28 15 23 0
-5 7 -3 16 5 14 12 14 14 -4 20 -12 5 -22 21 -26 42 -5 29 -21 47 -42 47 -13
0 -1 -36 19 -53 l22 -20 -40 8 c-22 4 -44 10 -50 15 -13 10 -78 31 -87 27 -3
-1 -18 9 -32 22 -14 14 -26 21 -26 18 0 -4 -27 6 -60 23 -63 32 -80 36 -80 20z
m155 -93 c0 -6 11 -12 25 -12 23 -2 70 -21 70 -29 0 -2 -11 -1 -25 1 -15 3
-31 -1 -41 -11 -19 -19 -55 -18 -62 2 -3 9 3 11 22 6 29 -7 35 6 11 26 -8 7
-15 19 -15 28 0 8 3 12 8 8 4 -4 7 -13 7 -19z"/>
<path d="M2884 521 c-87 -44 -112 -56 -179 -79 -36 -13 -130 -39 -165 -46 -14
-3 -35 -7 -47 -10 -11 -2 -42 -8 -68 -11 -57 -9 -55 -31 3 -27 54 3 63 -14 12
-23 -41 -7 -50 -21 -28 -43 16 -16 38 -15 38 2 0 26 35 10 38 -17 3 -26 31
-46 33 -24 2 14 2 10 -6 71 -4 30 -3 47 4 48 29 4 34 2 37 -12 2 -8 6 -31 10
-50 6 -33 18 -50 38 -50 5 0 5 15 2 33 -20 94 -20 93 13 105 17 6 31 9 31 7 0
-3 11 0 25 5 18 7 25 6 25 -3 0 -6 -11 -13 -25 -13 -31 -2 -55 -21 -55 -43 0
-19 46 -68 55 -59 8 7 -5 38 -16 38 -5 0 -9 6 -9 14 0 14 47 29 52 16 2 -4 13
-11 26 -14 16 -6 22 -3 22 8 0 9 4 16 9 16 5 0 16 3 24 6 9 3 16 -3 20 -15 5
-21 37 -30 37 -11 0 5 -8 32 -19 59 -16 43 -17 51 -4 55 23 9 23 9 44 -40 19
-42 42 -64 55 -51 4 4 -25 79 -42 109 -3 4 13 15 33 24 21 10 41 19 45 21 4 2
9 -1 13 -7 3 -5 -10 -17 -29 -27 -40 -19 -43 -25 -20 -48 18 -17 39 -15 39 4
0 27 29 30 52 5 21 -23 43 -32 43 -17 0 3 -12 27 -26 51 -15 25 -27 54 -28 65
-1 11 -5 21 -11 22 -5 2 -51 -18 -101 -44z m-106 -113 c2 -8 -5 -15 -15 -15
-23 0 -36 19 -20 29 16 10 31 4 35 -14z"/>
<path d="M1926 371 c-5 -7 4 -14 23 -17 17 -4 31 -10 31 -15 0 -5 -6 -6 -14
-3 -7 3 -21 -2 -29 -11 -20 -20 -6 -57 31 -81 20 -13 26 -14 33 -3 12 18 11
46 0 54 -5 3 -12 1 -16 -5 -3 -5 -15 -10 -26 -10 -33 0 -16 25 19 28 19 2 32
9 34 19 2 9 14 17 27 18 23 2 23 0 17 -56 -3 -36 -2 -61 5 -65 14 -9 19 -2 24
37 11 77 8 73 64 74 57 1 87 -10 58 -21 -9 -3 -23 -4 -30 -1 -37 14 -57 -42
-25 -69 13 -10 17 -12 11 -4 -18 20 -16 37 4 45 12 4 24 -1 35 -14 16 -21 55
-30 43 -11 -3 6 3 10 14 10 14 0 21 -8 23 -27 2 -14 9 -28 16 -31 9 -3 12 11
10 55 -1 32 0 65 3 73 3 12 -9 15 -66 17 -93 2 -231 11 -276 19 -23 4 -39 2
-43 -5z m347 -50 c3 -11 2 -22 -1 -25 -9 -10 -31 15 -25 30 7 20 20 17 26 -5z"/>
</g>
</svg>
